<svg id="svg" version="1.1" width="570" height="708" xmlns="http://www.w3.org/2000/svg" xmlns:xlink="http://www.w3.org/1999/xlink" ><g id="svgg"><path id="path0" d="M40.000 152.683 C 40.000 153.022,89.134 305.586,98.688 334.912 L 101.832 344.561 126.615 344.561 L 151.398 344.561 151.893 350.244 C 153.134 364.466,158.442 366.324,170.968 356.919 C 172.566 355.719,174.588 354.263,175.462 353.684 C 177.398 352.400,189.659 342.957,193.416 339.856 C 200.479 334.025,204.921 330.943,210.877 327.737 C 213.965 326.075,216.807 324.482,217.193 324.197 C 222.264 320.448,238.250 315.879,254.035 313.668 C 262.951 312.418,290.230 313.288,284.211 314.630 C 273.550 317.006,270.253 319.385,249.474 339.696 C 236.324 352.549,230.079 358.453,226.036 361.854 C 224.725 362.957,223.141 364.333,222.516 364.912 C 211.456 375.161,194.382 382.527,176.915 384.583 C 167.527 385.689,167.203 386.667,176.225 386.667 C 183.150 386.667,192.496 385.211,199.298 383.073 C 202.415 382.094,210.063 378.789,210.526 378.222 C 210.719 377.986,211.397 377.601,212.033 377.367 C 217.246 375.449,236.217 359.235,255.841 339.927 C 276.539 319.561,283.037 315.901,294.965 317.889 C 302.823 319.199,314.386 330.280,314.386 336.500 C 314.386 337.653,312.061 334.970,310.465 331.974 C 306.029 323.647,302.309 320.682,296.338 320.717 C 285.825 320.778,277.265 334.066,274.075 355.280 C 273.539 358.841,272.920 362.544,272.698 363.509 C 272.476 364.474,271.817 371.263,271.233 378.596 C 268.189 416.816,271.781 413.665,222.807 421.079 C 217.789 421.839,212.737 422.771,211.579 423.151 C 208.578 424.135,228.315 423.512,242.435 422.177 C 248.598 421.594,253.809 421.388,254.014 421.720 C 255.486 424.102,285.070 424.029,295.789 421.618 C 303.718 419.834,314.650 411.863,320.019 403.951 C 321.787 401.345,322.801 400.779,343.509 390.858 C 361.340 382.315,366.160 380.400,373.478 378.952 L 377.482 378.159 377.688 373.465 L 377.895 368.772 378.852 372.982 C 379.379 375.298,380.251 378.054,380.792 379.107 C 381.734 380.944,381.696 381.038,379.834 381.456 C 378.768 381.695,376.789 382.174,375.439 382.520 C 374.088 382.867,371.009 383.152,368.596 383.154 C 362.752 383.159,362.990 384.255,368.947 384.768 C 380.513 385.764,386.376 384.026,388.540 378.962 C 394.030 366.109,393.924 317.952,388.384 308.342 C 385.486 303.315,377.087 297.544,372.669 297.544 C 369.429 297.544,368.976 296.857,370.506 294.263 C 374.803 286.980,372.326 285.951,347.874 284.858 L 329.782 284.050 324.687 281.147 L 319.593 278.243 339.050 217.893 C 349.752 184.701,358.843 156.996,359.254 156.325 C 361.866 152.059,363.948 152.281,321.227 152.281 L 282.454 152.281 267.759 199.123 C 259.677 224.886,251.845 249.841,250.354 254.580 C 248.864 259.318,247.424 263.056,247.155 262.888 C 246.887 262.719,240.982 246.927,234.035 227.793 L 221.404 193.006 200.000 193.007 L 178.596 193.007 166.704 225.802 C 160.164 243.839,154.354 259.702,153.794 261.053 L 152.776 263.509 151.925 261.404 C 151.457 260.246,143.534 235.219,134.317 205.789 L 117.559 152.281 78.780 152.281 C 57.451 152.281,40.000 152.462,40.000 152.683 M122.105 153.684 C 122.105 154.070,122.418 154.386,122.799 154.386 C 123.181 154.386,124.358 157.228,125.416 160.702 C 127.859 168.726,129.714 169.469,131.549 163.158 C 132.932 158.400,132.979 158.400,134.488 163.189 C 136.328 169.026,137.905 168.371,140.476 160.702 C 141.576 157.421,142.787 154.632,143.167 154.503 C 144.791 153.954,143.664 152.982,141.404 152.982 C 139.128 152.982,138.016 153.958,139.664 154.508 C 140.110 154.657,139.895 156.177,139.095 158.531 L 137.809 162.315 136.546 157.649 C 135.581 154.083,134.984 152.982,134.015 152.982 C 132.831 152.982,132.431 153.752,130.004 160.702 C 129.787 161.323,129.178 160.338,128.517 158.299 C 127.658 155.650,127.598 154.777,128.260 154.557 C 130.325 153.868,128.837 152.982,125.614 152.982 C 123.684 152.982,122.105 153.298,122.105 153.684 M146.140 153.959 C 147.112 154.697,147.368 155.958,147.368 160.000 C 147.368 164.042,147.112 165.303,146.140 166.041 C 145.092 166.836,145.914 166.976,151.754 166.995 L 158.596 167.018 158.596 164.912 C 158.596 163.509,158.246 162.807,157.544 162.807 C 156.959 162.807,156.491 163.431,156.491 164.211 C 156.491 165.380,156.023 165.614,153.684 165.614 C 150.944 165.614,150.877 165.556,150.877 163.158 C 150.877 160.544,153.085 159.531,153.938 161.754 C 154.719 163.790,155.789 162.776,155.789 160.000 C 155.789 157.044,155.135 156.498,153.684 158.246 C 152.131 160.117,150.877 159.490,150.877 156.842 C 150.877 153.893,154.374 153.144,155.789 155.789 C 156.887 157.840,157.895 157.504,157.895 155.088 L 157.895 152.982 151.404 153.005 C 145.855 153.024,145.091 153.162,146.140 153.959 M162.807 154.386 C 160.300 156.893,161.501 159.490,166.073 161.450 C 169.636 162.977,169.818 164.447,166.484 164.778 C 164.863 164.939,164.105 164.624,163.531 163.550 C 162.362 161.367,161.287 161.817,161.534 164.386 C 161.752 166.638,161.804 166.669,165.755 166.876 C 173.473 167.280,175.351 161.814,168.599 158.596 C 164.666 156.722,164.209 155.576,167.251 155.216 C 168.464 155.073,169.281 155.384,169.553 156.093 C 170.300 158.040,171.930 157.351,171.930 155.088 C 171.930 152.364,165.336 151.857,162.807 154.386 M175.439 155.088 C 175.439 157.453,176.776 157.947,177.341 155.789 C 177.544 155.013,178.298 154.386,179.029 154.386 C 180.936 154.386,181.018 164.602,179.123 166.041 C 178.056 166.851,178.424 166.976,181.930 166.995 C 185.766 167.016,187.191 166.235,184.912 165.360 C 183.125 164.674,183.410 154.386,185.216 154.386 C 185.968 154.386,186.776 155.028,187.030 155.828 C 187.647 157.774,189.070 157.178,189.345 154.858 L 189.567 152.982 182.503 152.982 L 175.439 152.982 175.439 155.088 M200.175 153.959 C 201.147 154.697,201.404 155.958,201.404 160.000 C 201.404 164.042,201.147 165.303,200.175 166.041 C 199.121 166.841,199.722 166.976,204.440 166.995 C 211.303 167.023,214.035 165.031,214.035 160.000 C 214.035 154.969,211.303 152.977,204.440 153.005 C 199.722 153.024,199.121 153.159,200.175 153.959 M217.719 153.940 C 218.689 154.692,218.947 155.965,218.947 160.000 C 218.947 164.042,218.691 165.303,217.719 166.041 C 216.655 166.849,217.052 166.973,220.702 166.973 C 224.436 166.973,224.767 166.863,223.632 166.002 C 222.793 165.366,222.430 164.346,222.579 163.042 L 222.807 161.053 224.830 164.035 C 226.799 166.938,232.281 168.616,232.281 166.316 C 232.281 165.930,231.866 165.614,231.360 165.614 C 229.668 165.614,227.055 161.334,227.972 160.065 C 231.377 155.358,229.787 153.374,222.441 153.161 C 217.319 153.013,216.662 153.122,217.719 153.940 M234.561 153.959 C 235.533 154.697,235.789 155.958,235.789 160.000 C 235.789 164.042,235.533 165.303,234.561 166.041 C 233.497 166.849,233.894 166.973,237.544 166.973 C 241.193 166.973,241.591 166.849,240.526 166.041 C 239.555 165.303,239.298 164.042,239.298 160.000 C 239.298 155.958,239.555 154.697,240.526 153.959 C 241.591 153.151,241.193 153.027,237.544 153.027 C 233.894 153.027,233.497 153.151,234.561 153.959 M242.807 153.684 C 242.807 154.070,243.078 154.386,243.409 154.386 C 243.740 154.386,245.196 157.245,246.644 160.740 C 250.095 169.064,251.108 169.059,254.471 160.702 C 255.791 157.421,257.180 154.632,257.558 154.503 C 259.132 153.967,258.077 152.982,255.930 152.982 C 253.791 152.982,253.612 153.157,253.583 155.263 C 253.566 156.518,253.069 158.649,252.478 160.000 L 251.403 162.456 249.858 158.947 C 248.670 156.251,248.489 155.154,249.074 154.211 C 249.762 153.103,249.492 152.982,246.322 152.982 C 244.389 152.982,242.807 153.298,242.807 153.684 M260.526 153.959 C 261.498 154.697,261.754 155.958,261.754 160.000 C 261.754 164.042,261.498 165.303,260.526 166.041 C 259.478 166.836,260.300 166.976,266.140 166.995 L 272.982 167.018 272.982 164.912 C 272.982 163.509,272.632 162.807,271.930 162.807 C 271.345 162.807,270.877 163.431,270.877 164.211 C 270.877 165.380,270.409 165.614,268.070 165.614 C 265.330 165.614,265.263 165.556,265.263 163.158 C 265.263 160.544,267.471 159.531,268.324 161.754 C 269.105 163.790,270.175 162.776,270.175 160.000 C 270.175 157.044,269.521 156.498,268.070 158.246 C 266.517 160.117,265.263 159.490,265.263 156.842 C 265.263 153.893,268.760 153.144,270.175 155.789 C 271.273 157.840,272.281 157.504,272.281 155.088 L 272.281 152.982 265.789 153.005 C 260.241 153.024,259.477 153.162,260.526 153.959 M208.460 155.680 C 211.825 158.405,210.172 165.614,206.182 165.614 C 205.063 165.614,204.912 164.948,204.912 160.000 C 204.912 153.882,205.442 153.236,208.460 155.680 M225.238 155.743 C 226.178 157.500,226.167 157.592,224.856 158.904 C 223.328 160.431,222.456 159.667,222.456 156.801 C 222.456 154.072,224.025 153.476,225.238 155.743 M112.924 233.335 L 136.375 308.070 151.593 308.070 L 166.812 308.070 183.180 263.158 C 192.182 238.456,199.749 218.246,199.995 218.246 C 200.478 218.246,218.246 266.520,218.246 267.833 C 218.246 268.630,209.868 269.212,186.099 270.067 C 184.071 270.140,183.235 270.434,183.559 270.959 C 183.913 271.530,193.402 271.602,218.577 271.225 C 237.570 270.940,258.565 270.941,265.233 271.227 L 277.357 271.747 275.345 273.392 C 273.356 275.019,273.134 275.038,255.789 275.064 C 232.667 275.100,209.825 275.864,209.825 276.603 C 209.825 276.927,213.193 277.193,217.310 277.193 C 221.427 277.193,224.607 277.381,224.377 277.611 C 223.803 278.186,216.467 278.440,198.070 278.525 C 180.907 278.604,177.375 279.554,191.404 280.319 C 235.908 282.745,248.594 287.988,249.675 304.402 C 250.087 310.659,250.809 311.269,252.670 306.929 C 255.711 299.835,261.157 289.259,264.189 284.561 C 267.773 279.007,267.832 278.821,266.140 278.378 C 265.385 278.181,265.655 278.026,266.842 277.976 C 269.285 277.873,269.268 278.675,266.750 282.334 C 264.416 285.727,257.276 299.204,256.511 301.662 C 255.251 305.706,259.953 300.025,262.242 294.737 C 269.409 278.175,287.815 269.969,296.842 279.310 C 297.035 279.510,300.454 281.869,304.440 284.552 C 313.190 290.444,313.420 290.742,308.658 290.033 C 289.695 287.211,278.601 291.191,278.598 300.816 C 278.597 303.450,278.302 303.950,275.614 305.879 C 273.974 307.056,272.306 308.294,271.908 308.631 C 271.510 308.967,267.089 309.445,262.083 309.692 C 257.078 309.939,251.877 310.493,250.526 310.923 C 247.399 311.917,218.030 312.887,189.409 312.941 C 164.541 312.988,148.070 313.607,148.070 314.495 C 148.070 314.821,156.833 315.148,167.544 315.221 L 187.018 315.354 166.667 315.825 C 155.474 316.084,141.974 316.340,136.667 316.394 L 127.018 316.491 127.041 319.123 C 127.074 322.816,132.183 327.719,136.000 327.719 C 141.024 327.719,149.474 334.789,149.474 338.993 C 149.474 339.369,145.352 339.643,139.825 339.634 L 130.175 339.619 101.205 249.634 C 85.271 200.142,72.245 159.412,72.257 159.123 C 72.270 158.833,76.149 158.597,80.877 158.599 L 89.474 158.601 112.924 233.335 M327.698 159.474 C 327.686 159.956,319.864 184.509,310.315 214.035 L 292.953 267.719 284.634 267.918 C 276.824 268.104,276.336 268.037,276.656 266.813 C 276.844 266.096,284.541 241.455,293.762 212.054 L 310.526 158.598 319.123 158.597 C 325.544 158.597,327.714 158.818,327.698 159.474 M347.895 289.947 C 355.663 290.846,356.087 291.097,353.158 293.065 C 347.800 296.665,347.709 296.654,340.704 291.635 C 336.577 288.678,336.693 288.651,347.895 289.947 M365.322 294.415 C 363.810 295.750,362.240 296.842,361.832 296.842 C 361.425 296.842,361.853 296.309,362.784 295.657 C 363.715 295.005,365.048 293.899,365.747 293.201 C 366.446 292.502,367.254 291.943,367.544 291.959 C 367.833 291.975,366.833 293.080,365.322 294.415 M307.164 293.349 C 316.616 294.534,318.522 295.849,319.671 301.975 C 320.191 304.749,320.269 304.700,313.380 305.926 C 307.804 306.918,292.004 306.869,288.185 305.847 C 285.235 305.058,285.018 305.112,282.289 307.305 C 280.298 308.905,278.880 309.514,277.520 309.352 C 275.660 309.132,275.751 308.993,279.898 305.743 C 282.815 303.457,284.214 301.867,284.220 300.831 C 284.265 293.731,291.471 291.382,307.164 293.349 M335.768 304.700 C 333.464 307.091,331.238 309.381,330.820 309.787 C 328.357 312.187,321.608 324.273,319.681 329.735 C 317.990 334.526,319.944 333.235,324.077 326.828 C 332.328 314.040,339.571 306.063,345.965 302.720 C 353.334 298.868,372.874 299.956,380.378 304.636 C 385.224 307.658,389.223 313.653,385.432 312.212 C 376.709 308.895,371.284 324.973,371.239 354.278 C 371.213 371.188,370.499 371.908,337.193 388.546 C 333.719 390.281,329.693 392.325,328.246 393.088 C 325.763 394.397,324.410 393.696,326.140 391.998 C 326.430 391.714,326.987 390.203,327.380 388.640 C 328.058 385.937,328.434 385.623,335.099 382.197 C 338.952 380.217,342.211 378.360,342.339 378.070 C 342.468 377.781,342.918 377.544,343.340 377.544 C 344.693 377.544,353.682 371.097,355.093 369.115 C 359.304 363.202,358.944 362.972,348.018 364.598 C 343.994 365.197,340.146 365.769,339.466 365.870 C 338.786 365.971,336.629 367.849,334.673 370.044 C 330.713 374.487,329.825 374.885,329.825 372.215 C 329.825 365.640,324.766 349.519,321.257 344.912 C 320.963 344.526,319.901 343.184,318.896 341.930 C 317.869 340.648,316.634 337.729,316.077 335.263 C 313.993 326.041,308.513 318.916,300.371 314.843 C 294.388 311.849,295.548 310.879,305.121 310.873 C 316.859 310.865,324.369 308.683,324.776 305.160 C 324.995 303.269,325.997 302.896,336.491 300.795 C 339.821 300.128,339.738 300.578,335.768 304.700 M346.316 312.773 C 341.756 313.909,341.754 313.918,341.754 337.666 C 341.754 349.564,342.005 359.298,342.311 359.298 C 343.882 359.298,344.819 351.756,345.206 335.998 C 345.507 323.740,345.854 319.125,346.526 318.454 C 347.750 317.232,359.298 316.707,359.298 317.873 C 359.298 318.450,358.190 318.580,355.614 318.305 C 346.528 317.338,346.092 318.294,346.036 339.298 C 346.005 351.119,345.833 353.069,344.521 356.491 C 341.964 363.162,341.921 363.133,351.799 361.332 C 359.355 359.954,359.326 360.031,362.462 332.004 C 363.040 326.834,363.854 321.465,364.271 320.074 C 364.687 318.682,364.923 316.439,364.795 315.088 L 364.561 312.632 356.140 312.527 C 351.509 312.470,347.088 312.580,346.316 312.773 M222.632 314.906 C 220.219 315.043,216.272 315.043,213.860 314.906 C 211.447 314.769,213.421 314.656,218.246 314.656 C 223.070 314.656,225.044 314.769,222.632 314.906 M385.816 324.386 C 390.608 333.968,389.226 376.842,384.125 376.842 C 383.046 376.842,382.801 375.040,383.797 374.425 C 387.109 372.378,387.109 326.570,383.797 324.522 C 382.836 323.929,383.029 322.807,384.092 322.807 C 384.606 322.807,385.381 323.518,385.816 324.386 M302.766 325.873 C 303.679 326.471,305.102 327.911,305.929 329.073 L 307.433 331.185 302.837 329.034 C 300.310 327.851,296.940 326.709,295.350 326.496 C 292.510 326.115,292.488 326.090,294.123 325.146 C 296.125 323.990,300.447 324.354,302.766 325.873 M224.561 328.915 C 216.031 329.987,208.435 332.092,205.247 334.268 C 202.072 336.434,192.385 344.811,192.328 345.439 C 192.221 346.622,194.003 345.774,199.145 342.194 C 206.105 337.350,211.110 334.729,213.328 334.768 C 215.048 334.799,215.040 334.820,213.008 335.687 C 210.460 336.774,211.675 337.865,214.695 337.202 C 221.882 335.624,225.274 341.387,220.055 346.309 C 217.682 348.547,210.890 350.877,206.739 350.877 C 204.567 350.877,203.894 351.846,205.271 352.989 C 207.789 355.079,205.748 360.136,201.371 362.656 C 196.327 365.558,186.788 365.842,184.818 363.147 C 184.342 362.497,183.616 362.173,183.205 362.427 C 181.883 363.244,182.403 365.471,184.255 366.927 L 186.055 368.343 183.027 369.116 C 181.362 369.542,179.211 370.178,178.246 370.531 C 177.281 370.883,175.283 371.381,173.807 371.638 C 168.701 372.527,172.240 373.373,177.941 372.625 C 186.997 371.438,197.811 368.384,204.211 365.208 C 206.837 363.904,214.154 359.283,214.737 358.561 C 214.930 358.321,215.610 357.837,216.248 357.484 C 218.937 355.997,240.446 335.447,242.342 332.554 C 245.409 327.872,240.635 326.895,224.561 328.915 M231.228 333.275 C 229.609 333.914,215.061 334.880,215.631 334.311 C 216.133 333.808,224.705 332.828,229.123 332.768 C 231.518 332.736,232.186 332.896,231.228 333.275 M294.386 334.606 C 329.675 344.858,330.448 399.969,295.472 412.043 C 288.563 414.429,272.982 413.074,272.982 410.089 C 272.982 408.565,273.911 408.530,278.246 409.888 C 293.070 414.533,309.743 405.066,315.751 388.592 C 324.261 365.258,310.553 337.793,289.649 336.292 C 287.044 336.105,284.912 335.862,284.912 335.753 C 284.912 333.071,287.870 332.713,294.386 334.606 M292.524 339.398 C 295.793 340.348,298.029 341.364,300.262 342.915 C 300.406 343.015,299.263 344.529,297.722 346.280 C 295.153 349.198,289.825 358.900,289.825 360.658 C 289.825 361.884,285.120 361.553,284.636 360.293 C 283.123 356.349,286.138 338.272,288.313 338.248 C 288.447 338.247,290.341 338.764,292.524 339.398 M282.601 355.965 C 282.433 356.833,282.296 356.123,282.296 354.386 C 282.296 352.649,282.433 351.939,282.601 352.807 C 282.768 353.675,282.768 355.096,282.601 355.965 M312.705 358.421 C 313.525 359.742,314.746 364.827,315.401 369.649 L 315.806 372.632 312.114 371.229 C 309.526 370.245,306.722 369.825,302.742 369.825 L 297.063 369.825 295.725 367.305 L 294.386 364.785 296.710 362.831 C 302.541 357.931,310.960 355.609,312.705 358.421 M278.751 366.491 C 278.083 367.878,277.990 367.685,277.990 364.912 C 277.990 362.140,278.083 361.947,278.751 363.333 C 279.299 364.469,279.299 365.356,278.751 366.491 M238.947 369.029 C 237.789 369.747,236.025 371.104,235.027 372.045 C 227.890 378.771,215.142 386.299,205.263 389.621 C 196.726 392.492,193.777 393.011,181.754 393.758 C 170.041 394.485,168.489 394.688,169.200 395.399 C 170.001 396.200,185.795 397.241,195.535 397.135 C 205.401 397.028,206.473 397.136,207.380 398.333 C 209.279 400.841,208.140 405.546,204.469 410.359 C 202.188 413.350,202.379 413.495,207.397 412.567 C 213.493 411.440,220.272 407.696,225.784 402.412 C 228.344 399.958,230.082 395.067,230.975 387.800 C 231.660 382.223,232.068 380.840,233.208 380.230 C 234.566 379.504,234.591 379.656,234.185 386.058 C 233.252 400.737,227.252 408.060,212.112 412.994 C 203.651 415.751,210.961 415.917,221.053 413.197 C 239.453 408.236,243.618 402.822,245.056 381.991 C 246.074 367.245,245.113 365.208,238.947 369.029 M304.865 379.702 C 306.272 380.937,307.134 382.250,306.915 382.822 C 306.706 383.365,307.208 384.754,308.030 385.909 C 311.853 391.277,311.438 393.547,305.518 399.636 C 302.654 402.582,302.087 402.913,301.915 401.742 C 301.327 397.751,299.280 391.666,297.047 387.271 C 294.567 382.389,294.551 382.301,295.695 379.901 C 298.072 374.917,299.383 374.888,304.865 379.702 M277.963 383.401 L 276.491 384.873 276.491 382.027 C 276.491 378.403,277.210 377.684,278.456 380.062 C 279.342 381.753,279.295 382.069,277.963 383.401 M289.682 390.368 C 290.059 399.004,287.373 408.421,284.532 408.421 C 275.857 408.421,273.220 404.427,277.947 398.447 C 279.395 396.615,281.476 392.918,282.571 390.232 C 284.526 385.433,284.605 385.350,287.018 385.481 L 289.474 385.614 289.682 390.368 M271.054 418.493 L 275.091 420.137 267.612 420.595 C 255.263 421.351,253.382 421.151,259.298 419.712 C 263.006 418.811,267.018 417.332,267.018 416.867 C 267.018 416.857,268.834 417.589,271.054 418.493 " stroke="none" fill="#000000" fill-rule="evenodd"></path></g></svg>